<?xml version="1.0" encoding="UTF-8"?>
<svg width="512" height="512" viewBox="0 0 512 512" fill="none" xmlns="http://www.w3.org/2000/svg">
  <rect width="512" height="512" rx="256" fill="#DB924B" fill-opacity="0.1"/>
  <path d="M384 256C384 317.856 333.856 368 272 368H208C185.909 368 168 350.091 168 328V320C168 308.954 176.954 300 188 300H272C298.51 300 320 278.51 320 252C320 225.49 298.51 204 272 204H168C145.909 204 128 186.091 128 164V156C128 144.954 136.954 136 148 136H272C333.856 136 384 186.144 384 248V256Z" fill="#DB924B"/>
</svg>
